<svg xmlns="http://www.w3.org/2000/svg" viewBox="0 0 48 48" xmlns:xlink="http://www.w3.org/1999/xlink" xml:space="preserve" width="100%" height="100%"><path xmlns="http://www.w3.org/2000/svg" fill-rule="evenodd" d="M9.5 6A3.5 3.5 0 0 0 6 9.5v19C6 30.432 7.568 32 9.5 32h3a1.5 1.5 0 0 0 0-3h-3a.5.5 0 0 1-.5-.5v-19a.5.5 0 0 1 .5-.5h19a.5.5 0 0 1 .5.5v3a1.5 1.5 0 0 0 3 0v-3A3.5 3.5 0 0 0 28.5 6zm10 10a3.5 3.5 0 0 0-3.5 3.5v19c0 1.932 1.568 3.5 3.5 3.5h19a3.5 3.5 0 0 0 3.5-3.5v-19a3.5 3.5 0 0 0-3.5-3.5zm-.5 3.5a.5.5 0 0 1 .5-.5h19a.5.5 0 0 1 .5.5v19a.5.5 0 0 1-.5.5h-19a.5.5 0 0 1-.5-.5z" style="fill: rgb(255, 255, 255);"></path></svg>