<svg xmlns="http://www.w3.org/2000/svg" viewBox="0 0 48 48" xmlns:xlink="http://www.w3.org/1999/xlink" xml:space="preserve" width="100%" height="100%"><path xmlns="http://www.w3.org/2000/svg" fill="currentColor" fill-rule="evenodd" d="M5.92 24c0-9.072 7.072-18.08 18.08-18.08 8.89 0 13.286 6.58 15.158 10.08H33.6a1.6 1.6 0 0 0 0 3.2h9.6a1.6 1.6 0 0 0 1.6-1.6V8a1.6 1.6 0 0 0-3.2 0v5.802C39.347 9.827 34.131 2.72 24 2.72 10.998 2.72 2.72 13.392 2.72 24S10.998 45.28 24 45.28c6.22 0 11.398-2.464 15.085-6.214a21.8 21.8 0 0 0 4.57-6.935 1.6 1.6 0 1 0-2.96-1.216 18.6 18.6 0 0 1-3.892 5.907C33.696 39.99 29.328 42.08 24 42.08 12.992 42.08 5.92 33.072 5.92 24" clip-rule="evenodd" style="fill: rgb(255, 255, 255);"></path></svg>